<svg viewBox="0 0 96 96" xmlns="http://www.w3.org/2000/svg" xmlns:xlink="http://www.w3.org/1999/xlink" id="Icons_SpinningPlates_M" overflow="hidden"><g id="Icons"><path d="M31.435 36.413C32.1021 39.6623 35.2769 41.7555 38.5261 41.0884 41.7754 40.4213 43.8687 37.2465 43.2016 33.9973 42.5345 30.748 39.3597 28.6548 36.1104 29.3218 36.1069 29.3226 36.1035 29.3233 36.1 29.324 32.8545 29.9929 30.7658 33.1662 31.4347 36.4117 31.4348 36.4121 31.4349 36.4126 31.435 36.413ZM33.969 33C35.1832 31.1545 37.6636 30.6427 39.5092 31.8569 41.3547 33.0711 41.8665 35.5515 40.6522 37.3971 40.0692 38.2833 39.1579 38.9016 38.119 39.116 37.8512 39.1712 37.5785 39.1994 37.305 39.2 35.0959 39.1974 33.3071 37.4045 33.3097 35.1953 33.3106 34.4149 33.5398 33.6518 33.969 33Z" stroke="#FFFFFF" fill="#FFFFFF"/><path d="M8.415 21.374C8.20443 21.0206 8.07116 20.6266 8.024 20.218 7.90883 19.2954 8.22882 18.3717 8.89 17.718L7.419 16.361C6.35494 17.4439 5.84631 18.9551 6.039 20.461 6.11943 21.1488 6.34471 21.8117 6.7 22.406 7.14229 23.1206 7.74486 23.7225 8.46 24.164 9.38981 24.7312 10.4109 25.1328 11.478 25.351L11.917 23.4C11.0767 23.2319 10.2716 22.9203 9.537 22.479 9.08275 22.2022 8.69872 21.824 8.415 21.374Z" stroke="#FFFFFF" fill="#FFFFFF"/><path d="M30.036 16.326C30.2461 16.6796 30.3794 17.0735 30.427 17.482 30.5428 18.4047 30.2227 19.3287 29.561 19.982L31.03 21.339C32.6066 19.7176 32.9012 17.241 31.749 15.295 31.3075 14.5802 30.706 13.9777 29.992 13.535L28.914 15.22C29.3683 15.4973 29.7523 15.8758 30.036 16.326Z" stroke="#FFFFFF" fill="#FFFFFF"/><path d="M68.543 15.646 68.434 17.646C68.913 17.672 69.381 17.685 69.834 17.685 71.0737 17.701 72.311 17.5724 73.521 17.302 74.4218 17.1009 75.2809 16.7449 76.06 16.25 76.6772 15.8502 77.2022 15.3235 77.6 14.705 78.2082 13.735 78.4642 12.5854 78.325 11.449L76.341 11.699C76.3786 12.0096 76.3668 12.3241 76.306 12.631 76.2379 12.9859 76.1043 13.325 75.912 13.631 75.6637 14.0106 75.3374 14.3331 74.955 14.577 74.3711 14.9432 73.7283 15.2057 73.055 15.353 71.5722 15.6619 70.0533 15.7605 68.543 15.646Z" stroke="#FFFFFF" fill="#FFFFFF"/><path d="M54.843 10.855C54.2292 10.1565 53.9763 9.21172 54.159 8.3 54.2261 7.9448 54.3598 7.6055 54.553 7.3 54.8011 6.9205 55.1269 6.59805 55.509 6.354 56.0945 5.98701 56.739 5.72381 57.414 5.576 58.4707 5.34276 59.551 5.23303 60.633 5.249L60.633 3.249C59.3929 3.23249 58.1552 3.36103 56.945 3.632 56.0443 3.83389 55.1852 4.19015 54.406 4.685 53.7886 5.08365 53.2633 5.60933 52.865 6.227 52.5395 6.74374 52.3139 7.31701 52.2 7.917 51.9001 9.40316 52.2982 10.9448 53.28 12.1Z" stroke="#FFFFFF" fill="#FFFFFF"/><path d="M67.27 43.49C66.1852 45.3185 66.3753 47.6331 67.744 49.26 68.1886 49.7769 68.7328 50.1989 69.344 50.501 70.1005 50.8688 70.9148 51.1032 71.751 51.194 72.2063 51.2482 72.6645 51.2746 73.123 51.273 73.7679 51.2707 74.4121 51.2293 75.052 51.149L74.808 49.164C73.8759 49.2924 72.9317 49.3076 71.996 49.209 71.3881 49.1456 70.7955 48.9785 70.244 48.715 69.8724 48.5327 69.5412 48.2776 69.27 47.965 69.0527 47.7069 68.8815 47.4133 68.764 47.097 68.435 46.2272 68.5289 45.2539 69.018 44.463Z" stroke="#FFFFFF" fill="#FFFFFF"/><path d="M91.768 38.474C91.5688 37.9411 91.2792 37.4465 90.912 37.012 90.467 36.4955 89.9229 36.0736 89.312 35.771 88.5556 35.4039 87.7418 35.1695 86.906 35.078L86.66 37.063C87.2677 37.1261 87.86 37.2932 88.411 37.557 88.7835 37.7392 89.1154 37.9946 89.387 38.308 89.8077 38.81 90.0513 39.4366 90.08 40.091 90.0938 40.4681 90.0361 40.8444 89.91 41.2L91.799 41.856C92.008 41.2649 92.1033 40.6395 92.08 40.013 92.059 39.4866 91.9537 38.967 91.768 38.474Z" stroke="#FFFFFF" fill="#FFFFFF"/><path d="M85.58 38.995C83.1053 39.118 80.6684 39.6534 78.37 40.579 73.57 42.379 70.105 44.979 70.635 46.394 70.858 46.994 71.754 47.278 73.076 47.278 74.9189 47.2085 76.7429 46.8796 78.494 46.301L78.494 62.991C78.3363 62.984 78.1783 62.987 78.021 63L63.69 64.881 56.81 55.671 53.405 48.871 52.235 46.2 58.053 47.228C59.6226 47.5074 61.2042 46.8033 62.047 45.45L67.283 37.073C68.3156 35.4806 68.075 33.3797 66.709 32.062 66.55 31.9234 66.3805 31.7974 66.202 31.685L66.202 13.4C67.404 13.581 68.6174 13.6762 69.833 13.685 72.383 13.685 74.163 13.185 74.345 12.248 74.634 10.768 70.789 8.771 65.757 7.787 64.0698 7.44641 62.3542 7.26627 60.633 7.249 58.084 7.249 56.304 7.749 56.122 8.687 55.842 10.116 59.422 12.025 64.202 13.04L64.202 31.02C63.9741 31.0037 63.7451 31.0084 63.518 31.034 62.3626 31.1856 61.3356 31.8458 60.718 32.834L56.818 39.069 51.43 38.117C49.7607 37.8284 48.0429 38.0943 46.539 38.874L34.939 44.952 29.793 47.122 22.855 40.855C22.1593 40.2233 21.2681 39.8492 20.33 39.795L20.33 21.454C25.043 20.761 28.617 19.144 28.443 17.724 28.305 16.595 25.843 15.913 22.452 15.914 21.2635 15.9173 20.0764 15.9924 18.897 16.139 13.807 16.76 9.829 18.477 10.012 19.974 10.15 21.103 12.612 21.785 16.002 21.785 16.736 21.785 17.524 21.74 18.33 21.673L18.33 40.234C18.1528 40.3257 17.9829 40.431 17.822 40.549 16.0898 41.8393 15.7316 44.2896 17.0219 46.0218 17.1744 46.2265 17.3466 46.4158 17.536 46.587L26.4 54.593C27.5323 55.5985 29.139 55.8703 30.539 55.293L38.316 52.012 43.8 61.326 38.306 70.626C37.5878 71.8433 37.5821 73.3533 38.291 74.576L46.691 89.054C47.7728 90.9216 50.1639 91.5586 52.0315 90.4768 52.1264 90.4218 52.219 90.3628 52.309 90.3 53.9824 89.076 54.4475 86.7785 53.382 85L46.2 72.63 52.17 62.524 58.8 71.393C59.6472 72.5239 61.0377 73.1108 62.439 72.929L78.928 70.765C80.816 70.5467 82.2839 69.0201 82.428 67.125 82.5237 65.6475 81.7745 64.2433 80.494 63.5L80.494 45.612C85.186 43.812 88.543 41.27 88.022 39.878 87.8 39.283 86.9 38.994 85.58 38.995ZM13.251 19.585C13.246 19.585 13.242 19.581 13.242 19.576 13.242 19.571 13.246 19.567 13.251 19.567 15.1386 18.8194 17.1197 18.3339 19.139 18.124 20.2384 17.9871 21.3451 17.9169 22.453 17.914 23.3733 17.9049 24.2927 17.9718 25.202 18.114 25.207 18.114 25.211 18.118 25.211 18.123 25.211 18.128 25.207 18.132 25.202 18.132 23.3144 18.8796 21.3333 19.3651 19.314 19.575 18.2146 19.7119 17.1079 19.7821 16 19.785 15.0797 19.7942 14.1603 19.7273 13.251 19.585ZM60.634 9.247C62.2259 9.26448 63.8125 9.43189 65.373 9.747 67.372 10.1015 69.3133 10.7272 71.143 11.607 71.148 11.6094 71.15 11.6154 71.1476 11.6204 71.1467 11.6224 71.145 11.624 71.143 11.625 70.779 11.66 70.343 11.682 69.837 11.682 68.2448 11.665 66.6577 11.4976 65.097 11.182 63.098 10.8286 61.157 10.2028 59.328 9.322 59.323 9.31959 59.3209 9.31361 59.3234 9.30864 59.3243 9.30662 59.326 9.30498 59.328 9.304 59.692 9.27 60.125 9.247 60.634 9.247ZM78.667 68.781 62.18 70.945C61.4957 71.0362 60.8153 70.7515 60.4 70.2L52.9 60.15C52.6608 59.8504 52.2781 59.7039 51.9 59.767 51.6072 59.8149 51.3507 59.9904 51.2 60.246L44.182 72.117C43.9991 72.4292 43.9991 72.8158 44.182 73.128L51.651 86C52.1885 86.8792 51.9811 88.0217 51.169 88.656 50.2628 89.2491 49.0474 88.9954 48.4543 88.0892 48.4453 88.0756 48.4366 88.0618 48.428 88.048L40.022 73.571C39.6769 72.9739 39.68 72.2372 40.03 71.643L45.823 61.836C46.0071 61.5231 46.0071 61.1349 45.823 60.822L40.791 52.235 39.569 50.235C39.311 49.8127 38.7829 49.6427 38.327 49.835L29.757 53.45C29.0733 53.7315 28.289 53.5987 27.736 53.108L18.874 45.1C18.0912 44.3912 18.0312 43.1821 18.74 42.3993 18.8261 42.3042 18.9216 42.218 19.025 42.142 19.7985 41.6164 20.8334 41.6996 21.513 42.342L28.923 49.035C29.2111 49.2948 29.6235 49.3646 29.981 49.214L35.752 46.78C35.7776 46.7698 35.8027 46.7581 35.827 46.745L47.466 40.645C47.9992 40.3679 48.573 40.1772 49.166 40.08 49.8003 39.97 50.4487 39.97 51.083 40.08L57.136 41.15C57.5372 41.2205 57.9411 41.0405 58.157 40.695L62.409 33.9C62.9697 33.0052 64.1497 32.7344 65.0445 33.2952 65.1533 33.3634 65.255 33.4424 65.348 33.531 66.0019 34.2001 66.1018 35.2342 65.588 36.016L60.352 44.39C59.94 45.0513 59.1669 45.395 58.4 45.258L50.745 43.905C50.2011 43.8089 49.6823 44.1718 49.5862 44.7157 49.5519 44.9101 49.5758 45.1102 49.655 45.291L51.595 49.722 55.061 56.646C55.087 56.6993 55.1181 56.7499 55.154 56.797L62.439 66.547C62.6565 66.8353 63.0117 66.9853 63.37 66.94L78.277 64.983C78.8445 64.9103 79.415 65.0935 79.834 65.483 80.2545 65.8747 80.4751 66.4358 80.434 67.009 80.3362 67.9423 79.6 68.6805 78.667 68.781ZM79.584 43.82C77.6946 44.5626 75.7132 45.0454 73.694 45.255 73.6885 45.2549 73.6841 45.2504 73.6841 45.2449 73.6842 45.2423 73.6852 45.2398 73.687 45.238 75.3465 44.068 77.1583 43.1307 79.072 42.452 80.9617 41.7103 82.943 41.2276 84.962 41.017 84.9675 41.0164 84.9724 41.0204 84.973 41.0259 84.9734 41.0294 84.9719 41.0329 84.969 41.035 83.3093 42.2044 81.4975 43.1414 79.584 43.82Z" stroke="#FFFFFF" fill="#FFFFFF"/></g></svg>