<svg viewBox="0 0 96 96" xmlns="http://www.w3.org/2000/svg" xmlns:xlink="http://www.w3.org/1999/xlink" id="Icons_TriangleRuler_M" overflow="hidden"><g id="Icons"><path d="M8 7.586 8 89 89.414 89ZM10 73 15 73 15 71 10 71 10 59 15 59 15 57 10 57 10 45 15 45 15 43 10 43 10 31 15 31 15 29 10 29 10 12.414 84.586 87 65 87 65 82 63 82 63 87 51 87 51 82 49 82 49 87 37 87 37 82 35 82 35 87 23 87 23 82 21 82 21 87 10 87Z" stroke="#FFFFFF" fill="#FFFFFF"/><path d="M25 44.086 25 72 52.914 72ZM27 48.914 48.086 70 27 70Z" stroke="#FFFFFF" fill="#FFFFFF"/></g></svg>