<svg viewBox="0 0 96 96" xmlns="http://www.w3.org/2000/svg" xmlns:xlink="http://www.w3.org/1999/xlink" id="Icons_TargetAudience_M" overflow="hidden"><path d="M74.656 59.586C72.7342 57.8825 69.8588 57.8299 67.876 59.462L64.87 56.457C73.4508 47.0953 72.8177 32.5501 63.456 23.9693 54.0943 15.3886 39.5491 16.0216 30.9683 25.3833 22.3876 34.745 23.0206 49.2902 32.3823 57.871 41.1732 65.9286 54.6651 65.9286 63.456 57.871L66.456 60.871C65.7975 61.7501 65.3937 62.7936 65.289 63.887 65.1365 65.2667 65.6111 66.642 66.582 67.634L77.61 78.68C78.4876 79.5442 79.6755 80.0198 80.907 80 84.0473 79.9027 86.6359 77.5065 86.975 74.383 87.1272 73.0031 86.6527 71.6276 85.682 70.635ZM33.14 55.786C24.9539 47.5998 24.954 34.3274 33.1403 26.1413 41.3265 17.9552 54.5989 17.9553 62.785 26.1415 70.971 34.3277 70.971 47.5999 62.785 55.786 54.7091 63.972 41.5263 64.0612 33.3403 55.9853 33.2731 55.919 33.2063 55.8522 33.14 55.785ZM83.74 76.752C82.295 78.193 80.18 78.425 79.026 77.268L68 66.222C67.4502 65.6446 67.1875 64.8515 67.284 64.06 67.3864 63.0917 67.8265 62.1903 68.527 61.514 69.2705 60.7436 70.2858 60.2946 71.356 60.263 72.0575 60.2454 72.7366 60.511 73.24 61L84.266 72.043C84.8163 72.6206 85.079 73.4142 84.982 74.206 84.88 75.1742 84.4399 76.0753 83.739 76.751Z" stroke="#FFFFFF" fill="#FFFFFF"/><path d="M48 47C53.5228 47 58 42.5228 58 37 58 31.4772 53.5228 27 48 27 42.4772 27 38 31.4772 38 37 38 42.5228 42.4772 47 48 47ZM48 29C52.4183 29 56 32.5817 56 37 56 41.4183 52.4183 45 48 45 43.5817 45 40 41.4183 40 37 40.0039 32.5833 43.5833 29.0039 48 29Z" stroke="#FFFFFF" fill="#FFFFFF"/><path d="M56.95 50.355C54.05 49.4638 51.0339 49.0072 48 49 42.8142 49.0862 37.7172 50.3595 33.1 52.722 33.5281 53.2648 33.9851 53.7842 34.469 54.278 38.682 52.1997 43.303 51.0802 48 51 50.8436 51.0082 53.6702 51.4376 56.388 52.274 58.1521 52.7742 59.8736 53.4142 61.536 54.188 62.0187 53.6918 62.474 53.1697 62.9 52.624 60.9881 51.6922 58.9969 50.9329 56.95 50.355Z" stroke="#FFFFFF" fill="#FFFFFF"/><path d="M72 23.247C75.866 23.2625 78.9874 26.4091 78.9718 30.275 78.9589 33.4907 76.7568 36.2839 73.633 37.047 73.733 37.71 73.8 38.381 73.849 39.056 78.7192 38.062 81.8614 33.3082 80.8675 28.438 79.8735 23.5679 75.1197 20.4256 70.2495 21.4196 68.9654 21.6817 67.754 22.221 66.7 23 67.164 23.483 67.612 23.978 68.034 24.49 69.1978 23.6799 70.582 23.2461 72 23.247Z" stroke="#FFFFFF" fill="#FFFFFF"/><path d="M87.933 47.327C85.37 45.3511 82.4332 43.9149 79.3 43.105 77.5421 42.5696 75.7317 42.225 73.9 42.077 73.872 42.747 73.815 43.411 73.736 44.07 75.432 44.2081 77.1083 44.5279 78.736 45.024 81.6148 45.7615 84.3146 47.0738 86.673 48.882 87.4861 49.511 87.9734 50.4723 88 51.5L88 60 90 60 90 51.5C89.9724 49.8692 89.2136 48.3371 87.933 47.327Z" stroke="#FFFFFF" fill="#FFFFFF"/><path d="M24 23.247C25.3989 23.2468 26.7653 23.6693 27.92 24.459 28.343 23.946 28.793 23.451 29.259 22.968 25.2342 20.0597 19.6138 20.9648 16.7055 24.9896 13.7973 29.0144 14.7024 34.6348 18.7272 37.5431 19.729 38.267 20.8694 38.7766 22.077 39.04 22.126 38.366 22.195 37.696 22.295 37.032 18.5477 36.0813 16.2807 32.2728 17.2315 28.5255 18.0176 25.4269 20.8032 23.2545 24 23.247Z" stroke="#FFFFFF" fill="#FFFFFF"/><path d="M16.712 43.1C13.6158 44.0091 10.6958 45.4359 8.076 47.32 6.79076 48.3304 6.02837 49.8654 6 51.5L6 60 8 60 8 51.5C8.02261 50.4878 8.49514 49.5384 9.289 48.91 11.7055 47.1776 14.3969 45.8651 17.25 45.028 18.8673 44.5734 20.5213 44.2609 22.193 44.094 22.114 43.435 22.056 42.771 22.027 42.102 20.2295 42.2785 18.4511 42.6125 16.712 43.1Z" stroke="#FFFFFF" fill="#FFFFFF"/><path d="M30 65.255 30 71.755 32 71.755 32 65.255C32.022 64.2421 32.4946 63.2918 33.289 62.663 33.354 62.615 33.428 62.573 33.489 62.526 32.918 62.141 32.363 61.726 31.821 61.297 30.6851 62.3021 30.0242 63.7385 30 65.255Z" stroke="#FFFFFF" fill="#FFFFFF"/></svg>