<svg viewBox="0 0 96 96" xmlns="http://www.w3.org/2000/svg" xmlns:xlink="http://www.w3.org/1999/xlink" id="Icons_Playbook_M" overflow="hidden"><g id="Icons"><path d="M32.793 41.707C33.1835 42.0974 33.8165 42.0974 34.207 41.707L40 35.914 45.793 41.707C46.1903 42.0907 46.8233 42.0797 47.207 41.6824 47.5813 41.2949 47.5813 40.6805 47.207 40.293L41.414 34.5 47.207 28.707C47.5907 28.3097 47.5797 27.6767 47.1824 27.293 46.7949 26.9187 46.1805 26.9187 45.793 27.293L40 33.086 34.207 27.293C33.8097 26.9093 33.1767 26.9203 32.793 27.3176 32.4187 27.7051 32.4187 28.3195 32.793 28.707L38.586 34.5 32.793 40.293C32.4026 40.6835 32.4026 41.3165 32.793 41.707Z" stroke="#FFFFFF" stroke-width="1.2549" fill="#FFFFFF"/><path d="M69.207 55.293C68.8165 54.9026 68.1835 54.9026 67.793 55.293L62 61.086 56.207 55.293C55.8097 54.9093 55.1767 54.9203 54.793 55.3176 54.4187 55.7051 54.4187 56.3195 54.793 56.707L60.586 62.5 54.793 68.293C54.3957 68.6767 54.3847 69.3097 54.7684 69.707 55.1521 70.1043 55.7852 70.1153 56.1824 69.7316 56.1908 69.7235 56.199 69.7153 56.207 69.707L62 63.914 67.793 69.707C68.1903 70.0907 68.8233 70.0797 69.207 69.6824 69.5813 69.2949 69.5813 68.6805 69.207 68.293L63.414 62.5 69.207 56.707C69.5974 56.3165 69.5974 55.6835 69.207 55.293Z" stroke="#FFFFFF" stroke-width="1.2549" fill="#FFFFFF"/><path d="M40.231 70C44.3728 69.8403 47.723 66.5744 47.988 62.438 48.2145 58.2472 45.164 54.5938 41 54.069L41 52C41 50.3431 42.3431 49 44 49L58 49C60.7614 49 63 46.7614 63 44L63 30.438C63.0001 30.4325 63.0046 30.4281 63.0101 30.4281 63.0127 30.4282 63.0152 30.4292 63.017 30.431L68.293 35.707C68.6903 36.0907 69.3233 36.0797 69.707 35.6824 70.0813 35.2949 70.0813 34.6805 69.707 34.293L62.707 27.293C62.698 27.284 62.685 27.281 62.676 27.272 62.5908 27.1887 62.4916 27.121 62.383 27.072L62.383 27.072C62.375 27.072 62.365 27.072 62.356 27.066 62.2554 27.0283 62.1493 27.0074 62.042 27.004 62.0086 27.0041 61.9752 27.0061 61.942 27.01 61.8579 27.015 61.7748 27.0311 61.695 27.058 61.6609 27.0675 61.6275 27.0792 61.595 27.093 61.4834 27.1403 61.3816 27.2081 61.295 27.293L54.295 34.293C53.9113 34.6903 53.9223 35.3233 54.3196 35.707 54.7071 36.0813 55.3215 36.0813 55.709 35.707L60.985 30.431C60.9889 30.4271 60.9953 30.4272 60.9991 30.4311 61.0009 30.433 61.002 30.4354 61.002 30.438L61.002 44C61.002 45.6569 59.6589 47 58.002 47L44 47C41.2386 47 39 49.2386 39 52L39 54.069C34.6184 54.6373 31.5271 58.6499 32.0954 63.0315 32.6224 67.0951 36.1347 70.1035 40.231 70ZM40 56C43.3137 56 46 58.6863 46 62 46 65.3137 43.3137 68 40 68 36.6863 68 34 65.3137 34 62 34.0039 58.6879 36.6879 56.0039 40 56Z" stroke="#FFFFFF" stroke-width="1.2549" fill="#FFFFFF"/><path d="M19.452 64 22 64 22 72 19.452 72C18.0985 72.0017 17.0017 73.0985 17 74.452L17 74.661C17.0011 75.9523 18.0477 76.9989 19.339 77L20 77C20.5523 77 21 76.5523 21 76 21 75.4477 20.5523 75 20 75L19.339 75C19.1518 75 19 74.8482 19 74.661L19 74.452C19.0005 74.2026 19.2026 74.0006 19.452 74L22 74 22 80C22 80.5523 22.4477 81 23 81L79 81C79.5523 81 80 80.5523 80 80L80 17C80 16.4477 79.5523 16 79 16L23 16C22.4477 16 22 16.4477 22 17L22 22 19.452 22C18.0985 22.0017 17.0017 23.0985 17 24.452L17 24.661C17.0011 25.9523 18.0477 26.9989 19.339 27L20 27C20.5523 27 21 26.5523 21 26 21 25.4477 20.5523 25 20 25L19.339 25C19.1518 25 19 24.8482 19 24.661L19 24.452C19.0005 24.2026 19.2026 24.0005 19.452 24L22 24 22 32 19.452 32C18.0985 32.0017 17.0017 33.0985 17 34.452L17 34.661C17.0011 35.9523 18.0477 36.9989 19.339 37L20 37C20.5523 37 21 36.5523 21 36 21 35.4477 20.5523 35 20 35L19.339 35C19.1518 35 19 34.8482 19 34.661L19 34.452C19.0005 34.2026 19.2026 34.0005 19.452 34L22 34 22 42 19.452 42C18.0985 42.0017 17.0017 43.0985 17 44.452L17 44.661C17.0011 45.9523 18.0477 46.9989 19.339 47L20 47C20.5523 47 21 46.5523 21 46 21 45.4477 20.5523 45 20 45L19.339 45C19.1518 45 19 44.8482 19 44.661L19 44.452C19.0005 44.2026 19.2026 44.0005 19.452 44L22 44 22 52 19.452 52C18.0985 52.0017 17.0017 53.0985 17 54.452L17 54.661C17.0011 55.9523 18.0477 56.9989 19.339 57L20 57C20.5523 57 21 56.5523 21 56 21 55.4477 20.5523 55 20 55L19.339 55C19.1518 55 19 54.8482 19 54.661L19 54.452C19.0005 54.2026 19.2026 54.0005 19.452 54L22 54 22 62 19.452 62C18.0985 62.0017 17.0017 63.0985 17 64.452L17 64.661C17.0011 65.9523 18.0477 66.9989 19.339 67L20 67C20.5523 67 21 66.5523 21 66 21 65.4477 20.5523 65 20 65L19.339 65C19.1518 65 19 64.8482 19 64.661L19 64.452C19.0005 64.2026 19.2026 64.0006 19.452 64ZM24 18 78 18 78 79 24 79Z" stroke="#FFFFFF" stroke-width="1.2549" fill="#FFFFFF"/></g></svg>