<svg viewBox="0 0 96 96" xmlns="http://www.w3.org/2000/svg" xmlns:xlink="http://www.w3.org/1999/xlink" id="Icons_TakeOff" overflow="hidden"><rect x="6" y="72" width="84" height="4" stroke="#FFFFFF" fill="#FFFFFF"/><path d="M15.929 46.205C14.9321 46.1269 14.0361 45.5669 13.529 44.705L7.1 33.769C6.89207 33.4012 7.02167 32.9345 7.38946 32.7266 7.45765 32.688 7.53136 32.6602 7.608 32.644L9.97 32.144C10.6671 31.9974 11.3928 32.182 11.935 32.644L20.605 40.07 37.075 36.614 20.3 22.651C19.9755 22.3796 19.9325 21.8965 20.2039 21.572 20.314 21.4403 20.4651 21.3495 20.633 21.314L24.101 20.587C24.7334 20.4531 25.3919 20.5231 25.982 20.787L53.544 33.165 76.752 28.3C79.746 27.671 88.018 29.843 88.489 32.089 89.275 35.832 81.789 37.403 81.789 37.403L43.029 45.537C36.6453 46.8767 30.1035 47.3019 23.6 46.8Z" stroke="#FFFFFF" fill="#FFFFFF"/></svg>