<svg viewBox="0 0 96 96" xmlns="http://www.w3.org/2000/svg" xmlns:xlink="http://www.w3.org/1999/xlink" id="Icons_Blockchain_M" overflow="hidden"><g id="Icons"><path d="M74 50.4338 74 40.1123C73.9797 39.7332 73.7643 39.3917 73.431 39.2099L64 34.7043 64 17.4336 48 7.8336 32 17.4336 32 34.7043 22.5693 39.21C22.2361 39.3917 22.0209 39.7331 22.0005 40.1121L22.0005 50.4338 7.0005 59.4338 7.0005 78.5664 23.0005 88.1664 37.5292 79.4496 47.3941 85.8396C47.7172 86.0494 48.1321 86.0547 48.4605 85.8532L58.6871 79.5791 73 88.166 89 78.566 89 59.4336ZM86.0421 60.0086 73 67.834 59.9581 60.0086C59.9534 60.0068 59.951 60.0015 59.9528 59.9967 59.9537 59.9943 59.9556 59.9923 59.9581 59.9914L72 52.7661 72 56.7178C72 57.2701 72.4477 57.7178 73 57.7178 73.5523 57.7178 74 57.2701 74 56.7178L74 52.7661 86.042 59.9914C86.0467 59.9932 86.0491 59.9986 86.0473 60.0033 86.0463 60.0058 86.0444 60.0077 86.0419 60.0086ZM58.5439 32.0977C58.0456 31.8596 57.4486 32.0705 57.2104 32.5688 56.9723 33.0672 57.1833 33.6642 57.6816 33.9023L61.5064 35.73 49.0151 43.2248C49.0068 43.2298 49 43.2259 49 43.2162L49 27.5662 61.9849 19.7755C61.9932 19.7705 62 19.7744 62 19.7841L62 33.7491ZM61.0419 18.0086 48 25.834 34.9581 18.0086C34.9534 18.0068 34.951 18.0015 34.9528 17.9967 34.9537 17.9943 34.9556 17.9923 34.9581 17.9914L48 10.166 61.0419 17.9914C61.0466 17.9932 61.049 17.9985 61.0472 18.0033 61.0463 18.0057 61.0444 18.0077 61.0419 18.0086ZM34.0151 19.7752 47 27.5659 47 43.2159C47 43.2259 46.9932 43.2295 46.9849 43.2245L34.4936 35.73 38.3184 33.9026C38.8167 33.6645 39.0277 33.0675 38.7896 32.5691 38.5514 32.0708 37.9544 31.8599 37.4561 32.098L34 33.7488 34 19.7838C34 19.7741 34.0068 19.77 34.0151 19.7752ZM23 57.7178C23.5523 57.7178 24 57.2701 24 56.7178L24 52.7661 36.0418 59.9914C36.0466 59.9932 36.0489 59.9985 36.0471 60.0033 36.0462 60.0057 36.0443 60.0077 36.0418 60.0086L23 67.834 9.9581 60.0086C9.95335 60.0068 9.95096 60.0015 9.95277 59.9967 9.9537 59.9943 9.95564 59.9923 9.9581 59.9914L22 52.7661 22 56.7178C22 57.2701 22.4477 57.7178 23 57.7178ZM9.0151 61.7752 22 69.5659 22 85.2159C22 85.2259 21.9932 85.2295 21.9849 85.2245L9 77.4336 9 61.7836C9 61.7741 9.0068 61.77 9.0151 61.7752ZM24 85.2162 24 69.5662 36.9849 61.7755C36.9932 61.7705 37 61.7744 37 61.7841L37 76.7249 34.5435 75.1338C34.0894 74.8194 33.4665 74.9327 33.1521 75.3868 32.8377 75.8409 32.951 76.4638 33.4051 76.7782 33.4219 76.7898 33.439 76.8009 33.4565 76.8115L35.6591 78.2383 24.0151 85.2248C24.0068 85.23 24 85.2259 24 85.2162ZM47.9517 83.8184 39 78.02 39 59.4336 24 50.4341 24 40.7432 32.3287 36.7639 48 46.166 63.6708 36.7639 72 40.7432 72 50.4341 57 59.4336 57 78.2666ZM62.8525 75.85C62.5639 75.3791 61.9483 75.2313 61.4774 75.5198 61.4773 75.5199 61.4772 75.5199 61.4771 75.52L59 77.0393 59 61.7838C59 61.7738 59.0068 61.7702 59.0151 61.7752L72 69.5659 72 85.2159C72 85.2259 71.9932 85.2295 71.9849 85.2245L60.6088 78.3989 62.5229 77.2246C62.9933 76.9359 63.1408 76.3206 62.8525 75.85ZM74 85.2162 74 69.5662 86.9849 61.7755C86.9932 61.7705 87 61.7744 87 61.7841L87 77.4341 74.0151 85.2248C74.0068 85.23 74 85.2259 74 85.2162Z" stroke="#FFFFFF" fill="#FFFFFF"/></g></svg>