<svg viewBox="0 0 96 96" xmlns="http://www.w3.org/2000/svg" xmlns:xlink="http://www.w3.org/1999/xlink" id="Icons_DecisionChart_M" overflow="hidden"><g id="Icons"><path d="M10 89 38 89 38 75 10 75ZM12 77 36 77 36 87 12 87Z" stroke="#FFFFFF" fill="#FFFFFF"/><path d="M58 75 58 89 86 89 86 75ZM84 87 60 87 60 77 84 77Z" stroke="#FFFFFF" fill="#FFFFFF"/><path d="M57.414 52 71 52 71 69.562C71 69.575 70.992 69.578 70.983 69.569L66.707 65.293C66.3097 64.9093 65.6767 64.9203 65.293 65.3176 64.9187 65.7051 64.9187 66.3195 65.293 66.707L71.293 72.707C71.6835 73.0974 72.3165 73.0974 72.707 72.707L78.707 66.707C79.0907 66.3097 79.0797 65.6767 78.6824 65.293 78.2949 64.9187 77.6805 64.9187 77.293 65.293L73.017 69.569C73.008 69.578 73 69.575 73 69.562L73 50 57.414 50 48 40.586 38.586 50 23 50 23 69.562C23 69.575 22.992 69.578 22.983 69.569L18.707 65.293C18.3097 64.9093 17.6767 64.9203 17.293 65.3176 16.9187 65.7051 16.9187 66.3195 17.293 66.707L23.293 72.707C23.6835 73.0974 24.3165 73.0974 24.707 72.707L30.707 66.707C31.1043 66.3233 31.1153 65.6903 30.7316 65.293 30.3479 64.8957 29.7148 64.8847 29.3176 65.2684 29.3092 65.2765 29.3011 65.2847 29.293 65.293L25.017 69.569C25.008 69.578 25 69.575 25 69.562L25 52 38.586 52 48 61.414ZM48 43.414 55.586 51 48 58.586 40.414 51Z" stroke="#FFFFFF" fill="#FFFFFF"/><path d="M47 35.137C47 35.15 46.992 35.153 46.983 35.144L42.707 30.868C42.3233 30.4707 41.6903 30.4597 41.293 30.8434 40.8957 31.2271 40.8847 31.8602 41.2684 32.2574 41.2765 32.2658 41.2847 32.274 41.293 32.282L47.293 38.282C47.6835 38.6724 48.3165 38.6724 48.707 38.282L54.707 32.282C55.1043 31.8983 55.1153 31.2653 54.7316 30.868 54.3479 30.4708 53.7148 30.4597 53.3176 30.8434 53.3092 30.8515 53.301 30.8597 53.293 30.868L49.017 35.144C49.008 35.153 49 35.15 49 35.137L49 21 62 21 62 7 34 7 34 21 47 21ZM36 9 60 9 60 19 36 19Z" stroke="#FFFFFF" fill="#FFFFFF"/></g></svg>