<svg viewBox="0 0 96 96" xmlns="http://www.w3.org/2000/svg" xmlns:xlink="http://www.w3.org/1999/xlink" id="Icons_OfficeChair_M" overflow="hidden"><path d="M65 20C64.9928 13.9278 60.0722 9.00716 54 9L42 9C35.9278 9.00716 31.0072 13.9278 31 20L31 47 65 47ZM63 45 33 45 33 20C33.0061 15.0319 37.0319 11.0061 42 11L54 11C58.9681 11.0061 62.9939 15.0319 63 20Z" stroke="#FFFFFF" fill="#FFFFFF"/><path d="M75 34.518 70 34.518C68.3431 34.518 67 35.8611 67 37.518L67 37.518C67 39.1749 68.3431 40.518 70 40.518L70 50.562C69.9953 52.0599 69.1432 53.426 67.8 54.089 67.2583 52.2599 65.5796 51.0037 63.672 51L32.328 51C30.42 51.0035 28.741 52.2603 28.2 54.09 26.8567 53.4267 26.0045 52.0602 26 50.562L26 40.518 26 40.518C27.6569 40.518 29 39.1749 29 37.518L29 37.518C29 35.8611 27.6569 34.518 26 34.518L21 34.518C19.3431 34.518 18 35.8611 18 37.518L18 37.518C18 39.1749 19.3431 40.518 21 40.518L24 40.518 24 50.562C24.0055 53.1162 25.6369 55.3833 28.057 56.2 28.3355 58.3475 30.1625 59.9559 32.328 59.96L47 59.96 47 72.519 38.364 72.519C35.0565 72.5233 32.2019 74.8386 31.515 78.074 29.3278 78.4682 27.8743 80.5608 28.2685 82.7479 28.6627 84.9351 30.7553 86.3886 32.9424 85.9944 35.1296 85.6002 36.5831 83.5076 36.1889 81.3205 35.9313 79.8912 34.9235 78.7116 33.552 78.234 34.1307 76.0496 36.1042 74.526 38.364 74.519L47 74.519 47 78.141C44.861 78.6933 43.5747 80.875 44.127 83.014 44.6793 85.153 46.861 86.4393 49 85.887 51.139 85.3347 52.4253 83.153 51.873 81.014 51.5092 79.605 50.409 78.5048 49 78.141L49 74.519 58.253 74.519C60.4996 74.5273 62.464 76.035 63.053 78.203 60.9664 78.88 59.8237 81.1203 60.5007 83.2069 61.1777 85.2935 63.418 86.4362 65.5046 85.7592 67.5912 85.0823 68.7339 82.8419 68.0569 80.7553 67.6188 79.4051 66.4935 78.3913 65.105 78.096 64.4267 74.85 61.5671 72.5231 58.251 72.519L49 72.519 49 59.963 63.672 59.963C65.8374 59.9589 67.6645 58.3505 67.943 56.203 70.3638 55.3854 71.9951 53.1171 72 50.562L72 40.518 75 40.518C76.6569 40.518 78 39.1749 78 37.518L78 37.518C78 35.8611 76.6569 34.518 75 34.518ZM20 37.518C20 36.9657 20.4477 36.518 21 36.518L26 36.518C26.5523 36.518 27 36.9657 27 37.518 27 38.0703 26.5523 38.518 26 38.518L21 38.518C20.4477 38.518 20 38.0703 20 37.518ZM34.253 82C34.253 83.1046 33.3576 84 32.253 84 31.1484 84 30.253 83.1046 30.253 82 30.253 80.8954 31.1484 80 32.253 80 33.3576 80 34.253 80.8954 34.253 82ZM50 82C50 83.1046 49.1046 84 48 84 46.8954 84 46 83.1046 46 82 46 80.8954 46.8954 80 48 80 49.1046 80 50 80.8954 50 82ZM66.253 82C66.253 83.1046 65.3576 84 64.253 84 63.1484 84 62.253 83.1046 62.253 82 62.253 80.8954 63.1484 80 64.253 80 65.3576 80 66.253 80.8954 66.253 82ZM66 55.635C65.9989 56.9203 64.9573 57.9619 63.672 57.963L32.328 57.963C31.0427 57.9619 30.0011 56.9203 30 55.635L30 55.328C30.0017 54.043 31.043 53.0017 32.328 53L63.672 53C64.957 53.0017 65.9983 54.043 66 55.328ZM75 38.518 70 38.518C69.4477 38.518 69 38.0703 69 37.518 69 36.9657 69.4477 36.518 70 36.518L75 36.518C75.5523 36.518 76 36.9657 76 37.518 76 38.0703 75.5523 38.518 75 38.518Z" stroke="#FFFFFF" fill="#FFFFFF"/></svg>