<svg viewBox="0 0 96 96" xmlns="http://www.w3.org/2000/svg" xmlns:xlink="http://www.w3.org/1999/xlink" id="Icons_Podium_M" overflow="hidden"><g id="Icons"><path d="M75.7 37.457C78.1798 37.4576 80.1904 35.4478 80.191 32.968 80.1915 30.4882 78.1818 28.4776 75.702 28.477 73.2222 28.4764 71.2115 30.4862 71.211 32.966 71.211 32.9663 71.211 32.9667 71.211 32.967 71.2138 35.4452 73.2218 37.4537 75.7 37.457ZM75.7 30.478C77.0752 30.4774 78.1904 31.5918 78.191 32.967 78.1915 34.3422 77.0772 35.4574 75.702 35.458 74.3268 35.4586 73.2115 34.3442 73.211 32.969 73.211 32.9683 73.211 32.9677 73.211 32.967 73.2127 31.5931 74.326 30.4797 75.7 30.478Z" stroke="#FFFFFF" fill="#FFFFFF"/><path d="M67.616 57.444C68.1502 57.5843 68.6969 57.265 68.8372 56.7308 68.9765 56.2001 68.6623 55.6563 68.133 55.512 67.6135 55.3302 67.3049 54.7959 67.407 54.255L69.607 42.736C69.6476 42.5986 69.7219 42.4735 69.823 42.372 70.7442 41.6801 71.7883 41.1694 72.9 40.867 73.8046 40.6245 74.7356 40.4938 75.672 40.478 75.68 40.478 75.686 40.478 75.694 40.478 75.702 40.478 75.708 40.478 75.716 40.478 76.6473 40.4934 77.5731 40.6227 78.473 40.863 79.5979 41.1692 80.6543 41.6864 81.586 42.387 81.6628 42.4738 81.724 42.5733 81.767 42.681L83.98 54.234C84.0918 54.7805 83.7838 55.3258 83.258 55.512 82.7238 55.6523 82.4045 56.199 82.5448 56.7332 82.6851 57.2674 83.2318 57.5867 83.766 57.4464 83.769 57.4456 83.772 57.4448 83.775 57.444 85.3042 56.986 86.2416 55.4481 85.948 53.879L83.722 42.25C83.5774 41.6644 83.2408 41.144 82.766 40.772 81.6315 39.9215 80.3452 39.2953 78.976 38.927 77.9129 38.6443 76.819 38.4935 75.719 38.478 75.7051 38.4846 75.6889 38.4846 75.675 38.478 74.5698 38.4939 73.4709 38.646 72.403 38.931 71.0566 39.2931 69.791 39.907 68.673 40.74 68.1636 41.128 67.8054 41.6814 67.66 42.305L65.439 53.9C65.1547 55.4636 66.0927 56.9907 67.616 57.444Z" stroke="#FFFFFF" fill="#FFFFFF"/><path d="M47.7 21.457C50.1798 21.4576 52.1904 19.4478 52.191 16.968 52.1916 14.4882 50.1818 12.4776 47.702 12.477 45.2222 12.4764 43.2116 14.4862 43.211 16.966 43.211 16.9663 43.211 16.9667 43.211 16.967 43.2138 19.4452 45.2218 21.4537 47.7 21.457ZM47.7 14.478C49.0752 14.4774 50.1904 15.5918 50.191 16.967 50.1916 18.3422 49.0772 19.4574 47.702 19.458 46.3268 19.4585 45.2116 18.3442 45.211 16.969 45.211 16.9683 45.211 16.9677 45.211 16.967 45.2127 15.593 46.326 14.4797 47.7 14.478Z" stroke="#FFFFFF" fill="#FFFFFF"/><path d="M22.7 29.457C25.1798 29.4576 27.1904 27.4478 27.191 24.968 27.1916 22.4882 25.1818 20.4776 22.702 20.477 20.2222 20.4764 18.2116 22.4862 18.211 24.966 18.211 24.9663 18.211 24.9667 18.211 24.967 18.2138 27.4452 20.2218 29.4537 22.7 29.457ZM22.7 22.478C24.0752 22.4774 25.1904 23.5918 25.191 24.967 25.1916 26.3422 24.0772 27.4574 22.702 27.458 21.3268 27.4586 20.2116 26.3442 20.211 24.969 20.211 24.9683 20.211 24.9677 20.211 24.967 20.2127 23.5931 21.326 22.4797 22.7 22.478Z" stroke="#FFFFFF" fill="#FFFFFF"/><path d="M14.616 49.444C15.1502 49.5843 15.6969 49.265 15.8372 48.7308 15.9766 48.2001 15.6623 47.6563 15.133 47.512 14.6135 47.3302 14.3049 46.7959 14.407 46.255L16.607 34.736C16.6476 34.5986 16.7219 34.4735 16.823 34.372 17.7442 33.6801 18.7883 33.1694 19.9 32.867 20.8046 32.6245 21.7356 32.4938 22.672 32.478 22.68 32.478 22.686 32.478 22.694 32.478 22.702 32.478 22.708 32.478 22.716 32.478 23.6473 32.4934 24.5731 32.6227 25.473 32.863 26.5979 33.1692 27.6543 33.6864 28.586 34.387 28.6628 34.4738 28.724 34.5733 28.767 34.681L30.98 46.234C31.0918 46.7805 30.7838 47.3258 30.258 47.512 29.7238 47.6523 29.4045 48.199 29.5448 48.7332 29.6851 49.2674 30.2318 49.5867 30.766 49.4464 30.769 49.4456 30.772 49.4448 30.775 49.444 32.3042 48.986 33.2416 47.4481 32.948 45.879L30.722 34.25C30.5774 33.6644 30.2408 33.144 29.766 32.772 28.6315 31.9215 27.3452 31.2953 25.976 30.927 24.9129 30.6443 23.819 30.4935 22.719 30.478 22.7051 30.4847 22.6889 30.4847 22.675 30.478 21.5699 30.4939 20.4709 30.646 19.403 30.931 18.0566 31.2931 16.791 31.907 15.673 32.74 15.1636 33.128 14.8054 33.6814 14.66 34.305L12.439 45.9C12.1547 47.4636 13.0927 48.9907 14.616 49.444Z" stroke="#FFFFFF" fill="#FFFFFF"/><path d="M80.7 73.5 80.7 46.478C80.7 45.9257 80.2523 45.478 79.7 45.478 79.1477 45.478 78.7 45.9257 78.7 46.478L78.7 73.5 76.7 73.5 76.7 56.5 74.7 56.5 74.7 73.5 72.7 73.5 72.7 46.478C72.7 45.9257 72.2523 45.478 71.7 45.478 71.1477 45.478 70.7 45.9257 70.7 46.478L70.7 73.5 62 73.5 62 57.492 52.7 57.492 52.7 26.5 52.726 26.5C53.1149 26.4996 53.4683 26.2738 53.632 25.921L61.062 9.929C61.307 9.43404 61.1044 8.83417 60.6094 8.58916 60.1145 8.34415 59.5146 8.54678 59.2696 9.04174 59.2624 9.05633 59.2555 9.07108 59.249 9.086L52.449 23.723C51.7256 23.2542 50.9329 22.9023 50.1 22.68 49.3198 22.4732 48.5171 22.363 47.71 22.352L47.694 22.352 47.678 22.352C46.8654 22.3634 46.0573 22.4749 45.272 22.684 44.4461 22.9059 43.6602 23.2562 42.943 23.722L36.143 9.086C35.9102 8.58508 35.3154 8.36771 34.8145 8.6005 34.3136 8.83329 34.0962 9.42808 34.329 9.929L41.76 25.921C41.9255 26.2696 42.2792 26.4896 42.665 26.484L42.7 26.484 42.7 57.492 34 57.492 34 65.492 27.7 65.492 27.7 38.478C27.7 37.9257 27.2523 37.478 26.7 37.478 26.1477 37.478 25.7 37.9257 25.7 38.478L25.7 65.494 23.7 65.494 23.7 48.5 21.7 48.5 21.7 65.494 19.7 65.494 19.7 38.478C19.7 37.9257 19.2523 37.478 18.7 37.478 18.1477 37.478 17.7 37.9257 17.7 38.478L17.7 65.494 8 65.494 8 85.5 88 85.5 88 73.5ZM45.775 24.62C46.397 24.4533 47.0371 24.3633 47.681 24.352L47.697 24.352 47.713 24.352C48.3515 24.362 48.9862 24.4507 49.603 24.616 49.982 24.7174 50.3504 24.8551 50.703 25.027L50.703 57.492 48.703 57.492 48.703 40.5 46.703 40.5 46.703 57.492 44.703 57.492 44.703 25.025C45.0465 24.856 45.4055 24.7204 45.775 24.62ZM60 75.5 86 75.5 86 83.5 10 83.5 10 67.494 36 67.494 36 59.494 60 59.494Z" stroke="#FFFFFF" fill="#FFFFFF"/></g></svg>