<svg viewBox="0 0 96 96" xmlns="http://www.w3.org/2000/svg" xmlns:xlink="http://www.w3.org/1999/xlink" id="Icons_Tools_M" overflow="hidden"><g id="Icons"><path d="M60.191 49.851 58.777 51.266 85.136 77.566C86.5093 79.7546 86.2428 82.5924 84.486 84.487 83.4781 85.4878 82.1164 86.0511 80.696 86.055 79.6106 86.0588 78.552 85.7177 77.673 85.081 77.673 85.081 77.341 84.855 77.132 84.681 77.073 84.633 76.913 84.481 76.913 84.481L51.205 58.837 49.791 60.251 75.544 85.889 76.5 86.7C77.7215 87.5843 79.192 88.0584 80.7 88.054 82.6501 88.0525 84.5201 87.2779 85.9 85.9 88.3848 83.2835 88.7174 79.2917 86.7 76.3Z" stroke="#FFFFFF" stroke-width="1.2549" fill="#FFFFFF"/><path d="M74.366 35.459C81.8803 35.493 87.9994 29.4291 88.0335 21.9147 88.0412 20.1993 87.7245 18.4978 87.1 16.9L79 25 72.6 23.3 71 17 79.1 8.9C77.5859 8.33232 75.982 8.04202 74.365 8.043 70.9446 8.05055 67.6467 9.3167 65.1 11.6 61.3193 15.0653 59.7778 20.3448 61.1 25.3L45.322 41.078 23.419 19.2 20.893 14.25 11.427 6.659 6.659 11.427 14.259 20.894 19.2 23.419 41.1 45.293 10.1 76.3C8.3101 78.0305 7.58497 80.5875 8.2 83 8.80929 85.4094 10.6906 87.2907 13.1 87.9 15.5123 88.5054 18.0646 87.7816 19.8 86L70.8 35C71.9644 35.3037 73.1627 35.4579 74.366 35.459ZM20.506 21.893 15.545 19.307 9.345 11.573 11.577 9.341 19.311 15.541 21.781 20.4 43.905 42.49 42.519 43.876ZM69.386 33.586 18.386 84.586C17.442 85.5522 16.1508 86.1009 14.8 86.11 14.3907 86.11 13.9829 86.0592 13.586 85.959 11.8959 85.5246 10.5759 84.205 10.141 82.515 9.70804 80.8039 10.2155 78.9915 11.474 77.754L11.495 77.734 11.515 77.714 62.515 26.714 63.325 25.905 63.036 24.8C61.8826 20.5691 63.1955 16.0487 66.436 13.094 68.7976 10.9688 71.9126 9.87889 75.084 10.068L75.091 10.086 68.782 16.39 70.951 24.931 79.6 27.231 85.969 20.861C85.978 20.852 85.986 20.855 85.987 20.868 86.2361 24.0749 85.168 27.2448 83.029 29.647 80.8106 32.0862 77.6631 33.4719 74.366 33.461 73.3322 33.4582 72.3029 33.3238 71.303 33.061L70.195 32.773Z" stroke="#FFFFFF" stroke-width="1.2549" fill="#FFFFFF"/><path d="M14.888 78.9C13.6244 78.8995 12.5996 79.9234 12.599 81.187 12.5984 82.4506 13.6224 83.4754 14.886 83.476 16.1496 83.4766 17.1744 82.4526 17.175 81.189 17.175 81.1887 17.175 81.1883 17.175 81.188 17.175 79.9248 16.1512 78.9006 14.888 78.9Z" stroke="#FFFFFF" stroke-width="1.2549" fill="#FFFFFF"/></g></svg>