<svg viewBox="0 0 96 96" xmlns="http://www.w3.org/2000/svg" xmlns:xlink="http://www.w3.org/1999/xlink" id="Icons_TreasureMap_M" overflow="hidden"><g id="Icons"><path d="M73.489 42.707 74.903 41.293 69.11 35.5 74.903 29.707 73.489 28.293 67.696 34.086 61.903 28.293 60.489 29.707 66.282 35.5 60.489 41.293 61.903 42.707 67.696 36.914 73.489 42.707Z" stroke="#FFFFFF" fill="#FFFFFF"/><path d="M57.624 35.565C58.2783 35.6304 58.9249 35.7579 59.555 35.946L60.186 33.968 57.841 33.576Z" stroke="#FFFFFF" fill="#FFFFFF"/><path d="M42.937 66.314 42.995 68.314C44.062 68.283 45.095 68.219 46.06 68.124L45.86 66.134C44.943 66.223 43.958 66.284 42.937 66.314Z" stroke="#FFFFFF" fill="#FFFFFF"/><path d="M36.9 68.175C37.933 68.246 38.956 68.294 39.941 68.318L39.99 66.318C38.955 66.293 37.961 66.243 37.037 66.18Z" stroke="#FFFFFF" fill="#FFFFFF"/><path d="M46.886 42.954C47.4024 43.9386 48.0782 44.831 48.886 45.595L50.315 44.195C49.666 43.5826 49.1179 42.8715 48.691 42.088Z" stroke="#FFFFFF" fill="#FFFFFF"/><path d="M48.892 39.53C49.2545 38.9459 49.6808 38.4039 50.163 37.914L48.745 36.5C48.1584 37.0965 47.6402 37.7566 47.2 38.468 47.0453 38.7119 46.9095 38.9673 46.794 39.232L48.628 40.032C48.7029 39.8581 48.7911 39.6902 48.892 39.53Z" stroke="#FFFFFF" fill="#FFFFFF"/><path d="M54.879 35.6 54.598 33.62C53.5018 33.771 52.4359 34.0926 51.439 34.573L52.316 36.373C53.125 35.9837 53.9897 35.7229 54.879 35.6Z" stroke="#FFFFFF" fill="#FFFFFF"/><path d="M58.133 53.68C57.7363 52.6808 57.2277 51.7297 56.617 50.845L54.965 51.971C55.4909 52.7325 55.9291 53.551 56.271 54.411Z" stroke="#FFFFFF" fill="#FFFFFF"/><path d="M30.832 67.5C30.88 67.508 32.032 67.7 33.868 67.9L34.087 65.911C32.315 65.717 31.178 65.526 31.166 65.524Z" stroke="#FFFFFF" fill="#FFFFFF"/><path d="M48.741 65.721 49.124 67.685C50.1533 67.4891 51.1678 67.2218 52.16 66.885L51.506 64.994C50.6025 65.3009 49.6786 65.5439 48.741 65.721Z" stroke="#FFFFFF" fill="#FFFFFF"/><path d="M54.008 63.823 55.076 65.514C56.0369 64.9225 56.8773 64.1547 57.553 63.251L55.936 62.073C55.4094 62.7727 54.7553 63.3665 54.008 63.823Z" stroke="#FFFFFF" fill="#FFFFFF"/><path d="M52.455 46.24 51.086 47.7C51.876 48.441 52.533 49.075 53.174 49.762L54.637 48.4C53.919 47.626 53.163 46.905 52.455 46.24Z" stroke="#FFFFFF" fill="#FFFFFF"/><path d="M56.937 57.057C56.9858 57.4886 57.0105 57.9226 57.011 58.357 57.011 58.551 57.006 58.7483 56.996 58.949 56.983 59.2192 56.9537 59.4884 56.908 59.755L58.879 60.097C58.939 59.7497 58.9774 59.399 58.994 59.047 59.006 58.813 59.011 58.584 59.011 58.357 59.0109 57.8454 58.9815 57.3342 58.923 56.826Z" stroke="#FFFFFF" fill="#FFFFFF"/><path d="M34.733 42 36.733 42 36.733 39 40.933 39 35.733 26 30.533 39 34.733 39ZM35.733 31.386 37.979 37 33.488 37Z" stroke="#FFFFFF" fill="#FFFFFF"/><path d="M72.336 60.039 74.092 60.039 69.857 50 65.622 60.039 67.378 60.039 64.524 66 68.856 66 68.856 69 70.856 69 70.856 66 75.19 66ZM69.857 55.145 71.078 58.039 68.636 58.039ZM67.7 64 69.183 60.9 69.858 59.491 70.533 60.9 72.015 64Z" stroke="#FFFFFF" fill="#FFFFFF"/><path d="M41 55.5 38 48 33.6 59 37 59 37 61 39 61 39 59 43 59 43 61 45 61 45 59 48.4 59 44 48ZM39 57 36.553 57 38 53.385 39.446 57ZM45 57 42.553 57 44 53.385 45.446 57Z" stroke="#FFFFFF" fill="#FFFFFF"/><path d="M78.445 18 25 18 25 8 17 8C13.6879 8.00386 11.0039 10.6879 11 14L11 72C11.0039 75.3121 13.6879 77.9961 17 78L71 78 71 88 79 88C82.3121 87.9961 84.9961 85.3121 85 82L85 24C84.8379 20.5372 81.9086 17.8559 78.445 18ZM13 14C13 11.7909 14.7909 10 17 10L23 10 23 66 17 66C15.5234 65.999 14.0986 66.5443 13 67.531ZM13 72C13 69.7909 14.7909 68 17 68L25 68 25 20 78.445 20C80.8031 19.8594 82.8348 21.6435 83 24L83 76 17 76C14.7909 76 13 74.2091 13 72ZM83 82C83 84.2091 81.2091 86 79 86L73 86 73 78 83 78Z" stroke="#FFFFFF" fill="#FFFFFF"/></g></svg>