<svg viewBox="0 0 96 96" xmlns="http://www.w3.org/2000/svg" xmlns:xlink="http://www.w3.org/1999/xlink" id="Icons_Gauge_M" overflow="hidden"><g id="Icons"><path d="M47 26.025 47 33 49 33 49 26.021C53.6569 26.1285 58.2607 27.0347 62.611 28.7L60.081 34.6 61.919 35.388 64.462 29.454C67.5104 30.7987 70.3842 32.5089 73.02 34.547L74.57 33.223C55.9389 18.5289 28.9235 21.7205 14.2294 40.3516 8.24218 47.9429 4.99046 57.3318 5 67L5 71 7 71 7 67C6.99749 62.0051 7.91268 57.0522 9.7 52.388L15.6 54.919 16.388 53.081 10.455 50.539C12.3764 46.1821 15.0396 42.1919 18.326 38.746L23.287 43.707 24.701 42.293 19.74 37.332C23.1858 34.0456 27.1761 31.3824 31.533 29.461L34.075 35.394 35.913 34.606 33.388 28.7C37.7391 27.0371 42.3431 26.1323 47 26.025Z" stroke="#FFFFFF" fill="#FFFFFF"/><path d="M82.183 40.954 80.87 42.521C82.7255 45.0077 84.2928 47.6969 85.542 50.537L79.606 53.081 80.394 54.919 86.307 52.385C88.092 57.0507 89.0048 62.0045 89 67L89 71 91 71 91 67C91.0079 57.5842 87.9086 48.4289 82.183 40.954Z" stroke="#FFFFFF" fill="#FFFFFF"/><path d="M81.7 33.725C81.3308 33.3588 80.7427 33.3367 80.347 33.674L44.8 64.013C44.6083 64.1411 44.4393 64.3003 44.3 64.484 44.266 64.526 44.23 64.571 44.123 64.684 42.417 66.7899 42.6915 69.8699 44.743 71.641 45.6202 72.3722 46.7261 72.7724 47.868 72.772 49.3278 72.7673 50.714 72.13 51.668 71.025L81.768 35.075C82.0989 34.6755 82.0694 34.0892 81.7 33.725ZM50.142 69.725C49.1104 70.949 47.2907 71.1265 46.042 70.125 44.8308 69.0914 44.6381 67.2916 45.603 66.025 45.696 65.931 45.773 65.839 45.845 65.751 45.863 65.729 45.879 65.708 45.896 65.688 45.9419 65.6599 45.9857 65.6285 46.027 65.594L72.483 43.018C72.4869 43.0139 72.4934 43.0136 72.4975 43.0175 72.5016 43.0214 72.5019 43.0279 72.498 43.032Z" stroke="#FFFFFF" fill="#FFFFFF"/></g></svg>