<svg viewBox="0 0 96 96" xmlns="http://www.w3.org/2000/svg" xmlns:xlink="http://www.w3.org/1999/xlink" id="Icons_List_RTL_M" overflow="hidden"><g id="Icons"><rect x="28" y="25" width="23" height="2" stroke="#FFFFFF" fill="#FFFFFF"/><rect x="28" y="40" width="23" height="2" stroke="#FFFFFF" fill="#FFFFFF"/><rect x="28" y="55" width="23" height="2" stroke="#FFFFFF" fill="#FFFFFF"/><rect x="28" y="70" width="23" height="2" stroke="#FFFFFF" fill="#FFFFFF"/><path d="M78 8 18 8 18 88 78 88ZM76 86 20 86 20 10 76 10Z" stroke="#FFFFFF" fill="#FFFFFF"/><path d="M68 21.5 59 21.5 59 30.5 68 30.5ZM66 28.5 61 28.5 61 23.5 66 23.5Z" stroke="#FFFFFF" fill="#FFFFFF"/><path d="M68 36.5 59 36.5 59 45.5 68 45.5ZM66 43.5 61 43.5 61 38.5 66 38.5Z" stroke="#FFFFFF" fill="#FFFFFF"/><path d="M68 51.5 59 51.5 59 60.5 68 60.5ZM66 58.5 61 58.5 61 53.5 66 53.5Z" stroke="#FFFFFF" fill="#FFFFFF"/><path d="M68 66.5 59 66.5 59 75.5 68 75.5ZM66 73.5 61 73.5 61 68.5 66 68.5Z" stroke="#FFFFFF" fill="#FFFFFF"/></g></svg>